<?xml version="1.0" encoding="UTF-8"?>
<svg id="Layer_2" data-name="Layer 2" xmlns="http://www.w3.org/2000/svg" viewBox="0 0 5303.26 1647.06">
  <defs>
    <style>
      .cls-1 {
        fill: #5f7684;
      }

      .cls-2 {
        fill: #98c53e;
      }

      .cls-3 {
        fill: #82c341;
      }
    </style>
  </defs>
  <g id="Layer_1-2" data-name="Layer 1">
    <path class="cls-2" d="m214.69,91.93c213.28-122.47,488.89-122.53,702.3-.43-11.49,23.53-24.75,46.14-39.36,67.9-189.26-111.65-435.18-108.35-625.42-.55-12.59-22.31-25.3-44.49-37.52-66.92Z"/>
    <path class="cls-2" d="m279.34,199.97c174.11-101.2,400.95-99.25,575.49.24-12.04,22.49-24.81,44.67-37.77,66.67-153.39-86.84-348.83-86.23-502.46-.12-11.67-22.31-27.5-42.66-35.26-66.8Z"/>
    <path class="cls-2" d="m340.09,308.69c137.26-78.59,314.97-78.59,452.17.24-12.28,22.18-24.87,44.18-37.16,66.31-116.11-64.17-262.23-64.35-378.28,0-12.22-22.18-24.81-44.18-36.73-66.55Z"/>
    <path class="cls-2" d="m341.86,1349.12c25.61-.31,59.52-16.5,77.73,9.41-109.21,14.42-224.1,24.14-321.51,80.24-29.21,14.73-55.8,54.76-27.5,83.3,52.5,51.76,129.56,65.76,198.86,81.83,207.11,36.97,422.28,36.73,628.17-7.58,50.23-12.28,101.45-26.95,144.47-56.59,18.58-13.08,38.26-35.26,29.94-59.58-11.31-28.23-39.91-43.82-65.88-56.47-92.52-42.05-194.95-52.56-294.62-65.39,8.49-9.78,19.49-17.48,33.12-14.06,109.33,11.55,221.16,26.71,321.57,74.07,32.45,16.68,75.6,44.92,64.78,87.51-21.08,47.12-74.86,65.7-119.84,82.68-165.98,53.66-342.9,61.42-516.09,57.81-151.31-8.43-310.14-18.82-446.73-90.45-41.49-17.48-69.97-75.66-26.89-107.74,90.93-69.42,210.53-82.38,320.41-99Z"/>
    <path class="cls-2" d="m238.82,1433.39c65.76-26.03,136.46-36.48,206.5-43.27,4.34,5.62,8.8,11.31,13.2,16.99-71.68,9.78-149.91,15.83-210.04,60.13-22.12,15.22-11.79,46.14,9.17,56.77,58.3,35.75,128.46,44.06,195.07,52.25,116.05,9.84,234.85,7.88,348.15-21.33,32.88-10.02,69.73-20.17,91.48-48.77,14.48-21.27-9.41-42.17-26.77-51.64-59.28-31.47-127.36-39.72-193.05-47.61,4.4-5.62,8.86-11.24,13.32-16.87,77.25,8.37,156.81,17.97,227.21,52.92,21.02,11.12,48.34,29.76,41.56,57.38-12.41,32.33-48.83,45.1-78.41,56.9-132.25,42.84-273.9,46.2-411.53,38.32-82.81-7.58-168.18-17.11-244.02-53.53-21.82-11.31-51.33-30.98-42.9-59.65,10.14-25.67,37.52-38.26,61.05-49.01Z"/>
    <path class="cls-2" d="m419.72,1449.28c27.19-4.83,60.68-21.51,83.11,2.99-30.68,9.59-68.51,9.53-90.63,36.12,1.47,19.8,24.14,25.54,39.66,31.04,62.09,16.74,127.78,17.54,191.16,8.25,25.36-4.89,53.53-8.98,73.15-27.38,8.62-7.82.12-18.94-7.7-23.28-24.14-14.67-53.11-17.23-79.81-24.87,25.3-25.91,62.4-5.74,92.34-.49,22.37,8.01,61.78,16.87,56.41,48.03-16.38,24.32-47.91,30.19-74.31,37.52-90.26,18.52-184.62,18.46-274.88-.18-27.5-7.76-62.15-14.18-75.9-42.53,5.99-30.62,42.35-36.91,67.41-45.22Z"/>
    <path class="cls-1" d="m106.88,687.4c5.01-149.24,90.26-291.26,217.01-369.24,13.87,21.94,26.77,44.43,38.56,67.53-167.39,100.47-231.67,334.71-135.67,505.46,74.13-57.45,164.57-88.61,255.39-107.74,152.66-31.59,309.84-30.31,464.51-17.29,22.49-147.65-50.72-302.32-177.29-380.79,12.1-22.73,25.12-44.98,38.5-66.98,167.39,100.16,257.53,315.89,201.55,504.3-51.7,175.02-158.04,327.62-269.32,469.89-59.22-30.86-117.21-64.53-170.14-105.48-25.48-22.31-61.6-11-92.16-12.34,62.76,68.45,138.3,123.81,214.75,175.94-40.15,49.07-80.48,99-127.6,141.47-138.36-143.55-264.31-301.28-361.84-475.69-53.72-101.14-102.06-212.06-96.25-329.03Zm613.32,101.75c26.71,1.1,53.35-2.57,79.81-6.17l-.18-2.93c-26.58,2.69-53.41,3.61-79.63,9.11Zm-141.41,19.19c41.68,12.34,84.03-6.72,124.3-16.44-42.05-2.57-83.6,6.91-124.3,16.44Zm118.19,56.28c-30.49,17.17-63.25,47.06-56.83,85.68,9.9,45.47,49.62,74.98,83.85,102.61,104.62-47.3,183.34-144.9,210.1-256.3-81.28,12.41-164.39,27.93-237.11,68.02Zm-283.99,33.06c17.11.18,36.54,3.12,49.07-11.31,29.7-28.54,68.87-42.04,104.13-61.66-59.71-10.94-115.13,31.04-153.21,72.97Zm-24.87,42.17c-23.04,62.46,6.48,128.64,42.78,179.42,19.56.12,39.11.18,58.67.49-46.81-47.97-90.51-113.97-67.83-183.95-11.24.92-22.61,1.41-33.61,4.03Z"/>
    <path class="cls-1" d="m448.5,409.46c77.55-10.39,156.75-10.63,234.3,0,33.12,4.16,39.17,41.49,48.58,67.22,10.88-1.96,21.82-3.85,32.76-5.56,0,16.13-.06,32.33-.24,48.52-8.07.37-16.07.79-24.08,1.22,23.34,29.82,24.2,69.79,23.83,105.91.43,18.52-12.47,32.33-28.11,40.03,2.14,25.61-10.39,46.2-38.74,39.6-28.6,6.54-32.69-22.24-31.72-43.33h-198.92c18.94,56.65-82.01,60.07-69.85,4.16-17.6-8.92-30.07-26.22-28.17-46.57,1.04-33.92,1.1-71.38,23.77-98.94-8.43-1.34-16.81-2.63-25.24-3.91.31-15.4.61-30.8,1.1-46.2,10.82,1.41,21.69,2.99,32.51,4.71,10.02-25.12,15.83-62.15,48.22-66.86Zm20.23,24.44c-42.17,1.22-41.07,54.63-53.35,84.4,43.15,3.36,85.74-7.76,128.88-6.78,57.14-2.87,113.79,5.81,170.75,8.92-7.46-33.12-11.67-88.43-56.65-87.21-63.01-5.74-126.68-5.99-189.63.67Zm-57.63,154.98c.79,13.02,1.71,26.09,2.87,39.11,12.96-.49,25.97-1.04,38.99-1.71,9.53-31.47-12.22-49.68-41.86-37.4Zm267.98,37.28c13.75.49,27.56.55,41.31.24.37-12.65.55-25.36.55-38.01-29.64-11.49-51.09,6.29-41.86,37.77Z"/>
    <g>
      <path class="cls-3" d="m3263.01,1133.09h-37.11v121.97c0,7.03-1.57,12.24-4.7,15.63-3.13,3.4-7.18,5.1-12.14,5.1s-9.14-1.72-12.31-5.15c-3.17-3.44-4.75-8.63-4.75-15.58v-121.97h-37.11c-5.8,0-10.12-1.28-12.94-3.84-2.83-2.56-4.24-5.94-4.24-10.14s1.47-7.79,4.41-10.31c2.94-2.52,7.2-3.78,12.77-3.78h108.11c5.88,0,10.25,1.3,13.11,3.89,2.86,2.6,4.29,5.99,4.29,10.19s-1.45,7.58-4.35,10.14c-2.9,2.56-7.25,3.84-13.06,3.84Z"/>
      <path class="cls-3" d="m3321.67,1230.66v26.11c0,6.34-1.49,11.09-4.47,14.26-2.98,3.17-6.76,4.75-11.34,4.75s-8.21-1.6-11.11-4.81c-2.9-3.21-4.35-7.94-4.35-14.2v-87.04c0-14.05,5.08-21.07,15.23-21.07,5.19,0,8.93,1.64,11.22,4.92,2.29,3.28,3.55,8.13,3.78,14.54,3.74-6.41,7.58-11.26,11.51-14.54,3.93-3.28,9.18-4.92,15.75-4.92s12.94,1.64,19.13,4.92c6.18,3.28,9.28,7.64,9.28,13.06,0,3.82-1.32,6.97-3.95,9.45-2.63,2.48-5.48,3.72-8.53,3.72-1.14,0-3.91-.71-8.3-2.12-4.39-1.41-8.27-2.12-11.62-2.12-4.58,0-8.32,1.2-11.22,3.61-2.9,2.4-5.15,5.97-6.76,10.71-1.6,4.73-2.71,10.36-3.32,16.89-.61,6.53-.92,14.49-.92,23.88Z"/>
      <path class="cls-3" d="m3467.71,1258.15c-7.56,5.88-14.87,10.29-21.93,13.23-7.06,2.94-14.99,4.41-23.76,4.41-8.02,0-15.06-1.59-21.13-4.75-6.07-3.17-10.75-7.46-14.03-12.88-3.28-5.42-4.92-11.3-4.92-17.64,0-8.55,2.71-15.84,8.13-21.87,5.42-6.03,12.86-10.08,22.33-12.14,1.98-.46,6.91-1.49,14.77-3.09,7.86-1.6,14.6-3.07,20.21-4.41,5.61-1.33,11.7-2.96,18.27-4.87-.38-8.25-2.04-14.3-4.98-18.15-2.94-3.85-9.03-5.78-18.27-5.78-7.94,0-13.92,1.11-17.92,3.32-4.01,2.22-7.44,5.54-10.31,9.96-2.86,4.43-4.89,7.35-6.07,8.76-1.18,1.41-3.72,2.12-7.62,2.12-3.51,0-6.55-1.13-9.1-3.38-2.56-2.25-3.84-5.13-3.84-8.65,0-5.5,1.95-10.84,5.84-16.03,3.89-5.19,9.96-9.47,18.21-12.83,8.25-3.36,18.51-5.04,30.81-5.04,13.74,0,24.55,1.62,32.41,4.87,7.86,3.25,13.42,8.38,16.66,15.4,3.24,7.03,4.87,16.34,4.87,27.94,0,7.33-.02,13.55-.06,18.67-.04,5.12-.1,10.8-.17,17.06,0,5.88.97,12.01,2.92,18.38,1.95,6.38,2.92,10.48,2.92,12.31,0,3.21-1.51,6.13-4.52,8.76-3.02,2.63-6.43,3.95-10.25,3.95-3.21,0-6.38-1.51-9.5-4.52-3.13-3.02-6.45-7.39-9.96-13.11Zm-2.06-45.24c-4.58,1.68-11.24,3.46-19.98,5.33-8.74,1.87-14.79,3.25-18.15,4.12-3.36.88-6.57,2.6-9.62,5.15-3.05,2.56-4.58,6.13-4.58,10.71s1.79,8.76,5.38,12.08c3.59,3.32,8.28,4.98,14.09,4.98,6.18,0,11.89-1.35,17.12-4.07,5.23-2.71,9.07-6.2,11.51-10.48,2.82-4.73,4.24-12.52,4.24-23.36v-4.47Z"/>
      <path class="cls-3" d="m3641.36,1237.08c0,3.89-1.17,8.06-3.49,12.48-2.33,4.43-5.88,8.65-10.65,12.65-4.77,4.01-10.79,7.23-18.04,9.68-7.25,2.44-15.42,3.67-24.51,3.67-19.32,0-34.4-5.63-45.24-16.89-10.84-11.26-16.26-26.36-16.26-45.29,0-12.83,2.48-24.16,7.44-34.01,4.96-9.85,12.14-17.46,21.53-22.85,9.39-5.38,20.61-8.07,33.67-8.07,8.09,0,15.52,1.19,22.27,3.55,6.76,2.37,12.48,5.42,17.18,9.16,4.7,3.74,8.28,7.73,10.77,11.97,2.48,4.24,3.72,8.19,3.72,11.85s-1.39,6.91-4.18,9.51c-2.79,2.6-6.17,3.89-10.14,3.89-2.6,0-4.75-.67-6.47-2-1.72-1.33-3.65-3.49-5.78-6.47-3.82-5.8-7.81-10.15-11.97-13.06-4.16-2.9-9.45-4.35-15.86-4.35-9.24,0-16.68,3.61-22.33,10.82-5.65,7.21-8.48,17.08-8.48,29.6,0,5.88.73,11.28,2.18,16.21,1.45,4.92,3.55,9.12,6.3,12.6,2.75,3.48,6.07,6.11,9.96,7.9,3.89,1.79,8.17,2.69,12.83,2.69,6.26,0,11.62-1.45,16.09-4.35,4.47-2.9,8.42-7.33,11.85-13.28,1.91-3.51,3.97-6.26,6.18-8.25,2.21-1.98,4.92-2.98,8.13-2.98,3.82,0,6.99,1.45,9.51,4.35,2.52,2.9,3.78,5.99,3.78,9.28Z"/>
      <path class="cls-3" d="m3738.73,1261.47l-27.6-45.35-16.95,16.03v24.85c0,6.03-1.59,10.67-4.75,13.91-3.17,3.24-6.81,4.87-10.94,4.87-4.81,0-8.59-1.6-11.34-4.81-2.75-3.21-4.12-7.94-4.12-14.2v-133.31c0-6.95,1.33-12.23,4.01-15.86,2.67-3.62,6.49-5.44,11.45-5.44s8.63,1.64,11.45,4.92c2.82,3.28,4.24,8.13,4.24,14.54v75.81l35.16-36.88c4.35-4.58,7.67-7.71,9.96-9.39,2.29-1.68,5.08-2.52,8.36-2.52,3.89,0,7.14,1.24,9.73,3.72,2.59,2.48,3.89,5.59,3.89,9.33,0,4.58-4.24,10.69-12.71,18.32l-16.61,15.23,32.07,50.39c2.37,3.74,4.07,6.59,5.1,8.53,1.03,1.95,1.55,3.8,1.55,5.55,0,4.96-1.36,8.88-4.07,11.74-2.71,2.86-6.28,4.29-10.71,4.29-3.82,0-6.76-1.03-8.82-3.09s-4.85-5.8-8.36-11.22Z"/>
      <path class="cls-3" d="m3806.44,1134.12c-4.35,0-8.07-1.33-11.17-4.01-3.09-2.67-4.64-6.45-4.64-11.34,0-4.43,1.58-8.07,4.75-10.94,3.17-2.86,6.85-4.29,11.05-4.29s7.63,1.3,10.76,3.89c3.13,2.6,4.7,6.38,4.7,11.34s-1.53,8.57-4.58,11.28c-3.05,2.71-6.68,4.07-10.88,4.07Zm15.46,32.3v90.36c0,6.26-1.49,10.99-4.47,14.2s-6.76,4.81-11.34,4.81-8.3-1.64-11.17-4.92-4.29-7.98-4.29-14.09v-89.44c0-6.18,1.43-10.84,4.29-13.97,2.86-3.13,6.58-4.7,11.17-4.7s8.36,1.57,11.34,4.7c2.98,3.13,4.47,7.48,4.47,13.06Z"/>
      <path class="cls-3" d="m3883.77,1165.96v3.78c5.5-7.25,11.51-12.58,18.04-15.98,6.53-3.4,14.03-5.1,22.5-5.1s15.61,1.79,22.1,5.38c6.49,3.59,11.34,8.67,14.54,15.23,2.06,3.82,3.4,7.94,4.01,12.37.61,4.43.92,10.08.92,16.95v58.18c0,6.26-1.43,10.99-4.29,14.2s-6.58,4.81-11.17,4.81-8.44-1.64-11.34-4.92c-2.9-3.28-4.35-7.98-4.35-14.09v-52.11c0-10.31-1.43-18.19-4.29-23.65-2.86-5.46-8.57-8.19-17.12-8.19-5.57,0-10.65,1.66-15.23,4.98s-7.94,7.88-10.08,13.69c-1.53,4.66-2.29,13.36-2.29,26.11v39.17c0,6.34-1.47,11.09-4.41,14.26-2.94,3.17-6.74,4.75-11.39,4.75s-8.21-1.64-11.11-4.92c-2.9-3.28-4.35-7.98-4.35-14.09v-90.36c0-5.96,1.3-10.4,3.89-13.34,2.59-2.94,6.15-4.41,10.65-4.41,2.75,0,5.23.65,7.44,1.95,2.21,1.3,3.99,3.25,5.33,5.84,1.33,2.6,2,5.77,2,9.51Z"/>
      <path class="cls-3" d="m4113.19,1171.57v90.82c0,10.38-1.11,19.31-3.32,26.8-2.22,7.48-5.77,13.67-10.65,18.55-4.89,4.89-11.28,8.51-19.18,10.88-7.9,2.37-17.73,3.55-29.49,3.55-10.77,0-20.39-1.51-28.86-4.52-8.47-3.02-15-6.91-19.58-11.68-4.58-4.77-6.87-9.68-6.87-14.72,0-3.82,1.3-6.93,3.89-9.33,2.59-2.41,5.73-3.61,9.39-3.61,4.58,0,8.59,2.02,12.02,6.07,1.68,2.06,3.42,4.14,5.21,6.24,1.79,2.1,3.78,3.89,5.96,5.38,2.18,1.49,4.79,2.59,7.85,3.32,3.05.73,6.57,1.09,10.54,1.09,8.09,0,14.37-1.13,18.84-3.38,4.47-2.25,7.6-5.4,9.39-9.45,1.79-4.05,2.84-8.38,3.15-13,.3-4.62.53-12.04.69-22.27-4.81,6.72-10.36,11.84-16.66,15.35-6.3,3.51-13.8,5.27-22.5,5.27-10.46,0-19.6-2.67-27.43-8.02-7.83-5.34-13.84-12.83-18.04-22.45-4.2-9.62-6.3-20.73-6.3-33.33,0-9.39,1.28-17.87,3.84-25.42,2.56-7.56,6.2-13.93,10.94-19.13,4.73-5.19,10.19-9.1,16.38-11.74,6.18-2.63,12.98-3.95,20.38-3.95,8.86,0,16.53,1.7,23.02,5.1,6.49,3.4,12.52,8.72,18.09,15.98v-4.24c0-5.42,1.33-9.62,4.01-12.6,2.67-2.98,6.11-4.47,10.31-4.47,6.03,0,10.04,1.97,12.02,5.9,1.99,3.93,2.98,9.6,2.98,17.01Zm-90.59,39.63c0,12.67,2.77,22.26,8.3,28.75,5.53,6.49,12.69,9.73,21.47,9.73,5.19,0,10.1-1.39,14.72-4.18,4.62-2.79,8.38-6.99,11.28-12.6,2.9-5.61,4.35-12.43,4.35-20.44,0-12.75-2.81-22.68-8.42-29.78-5.61-7.1-13-10.65-22.16-10.65s-16.09,3.4-21.47,10.19c-5.38,6.8-8.07,16.45-8.07,28.97Z"/>
      <path class="cls-3" d="m4225.94,1140.65c0-7.1,1.85-13.57,5.55-19.41,3.7-5.84,9.14-10.48,16.32-13.91,7.18-3.44,15.61-5.15,25.31-5.15s17.94,1.79,24.97,5.38c7.02,3.59,12.27,8.29,15.75,14.09,3.47,5.8,5.21,11.84,5.21,18.09,0,8.55-2.83,16-8.47,22.33-5.65,6.34-13.97,12.79-24.97,19.35,3.82,4.51,7.37,8.74,10.65,12.71,3.28,3.97,6.45,7.67,9.51,11.11,3.05,3.44,5.84,6.38,8.36,8.82,1.15-2.14,2.92-6.14,5.33-12.02,2.41-5.88,4.66-10.12,6.76-12.71,2.1-2.59,5.06-3.89,8.88-3.89,3.59,0,6.76,1.28,9.5,3.84,2.75,2.56,4.12,5.67,4.12,9.33,0,3.36-1.18,8.11-3.55,14.26-2.37,6.15-5.8,12.96-10.31,20.44,2.82,2.44,7.31,6.15,13.46,11.11,6.15,4.96,9.92,8.34,11.34,10.14,1.41,1.79,2.12,4.18,2.12,7.16,0,3.97-1.43,7.31-4.29,10.02-2.86,2.71-6.05,4.07-9.56,4.07s-7.06-1.15-10.42-3.44c-3.36-2.29-10.5-7.9-21.42-16.83-4.96,4.66-10.1,8.48-15.4,11.45-5.31,2.98-10.99,5.19-17.06,6.64-6.07,1.45-12.85,2.18-20.33,2.18-9.54,0-18.11-1.39-25.71-4.18-7.6-2.79-13.91-6.55-18.95-11.28-5.04-4.73-8.78-9.98-11.22-15.75-2.44-5.76-3.67-11.62-3.67-17.58s.92-10.97,2.75-15.75c1.83-4.77,4.41-9.08,7.73-12.94,3.32-3.85,7.4-7.52,12.25-10.99,4.85-3.47,10.48-6.85,16.89-10.14-5.73-7.18-10.06-13.57-13-19.18-2.94-5.61-4.41-11.4-4.41-17.35Zm32.41,54.86c-7.79,4.51-13.61,9.01-17.46,13.51-3.86,4.51-5.78,9.85-5.78,16.03,0,3.51.71,6.87,2.12,10.08,1.41,3.21,3.47,6.18,6.18,8.93,2.71,2.75,5.86,4.85,9.45,6.3,3.59,1.45,7.37,2.18,11.34,2.18s7.67-.61,11.34-1.83c3.67-1.22,7.14-2.96,10.42-5.21,3.28-2.25,6.68-5.06,10.19-8.42-6.8-6.26-12.9-12.46-18.32-18.61-5.42-6.15-11.91-13.8-19.47-22.96Zm11.68-31.38c7.79-4.96,13.42-9.14,16.89-12.54,3.47-3.4,5.21-7.5,5.21-12.31s-1.74-8.7-5.21-11.91c-3.48-3.21-7.84-4.81-13.11-4.81s-9.68,1.64-13.23,4.92c-3.55,3.28-5.33,7.14-5.33,11.57,0,2.29.67,4.75,2,7.39,1.33,2.63,3,5.25,4.98,7.84,1.98,2.6,4.58,5.88,7.79,9.85Z"/>
      <path class="cls-3" d="m4512.3,1207.53h-31.15v47.53c0,6.8-1.6,11.95-4.81,15.46-3.21,3.51-7.25,5.27-12.14,5.27s-9.24-1.74-12.37-5.21c-3.13-3.47-4.7-8.57-4.7-15.29v-129.41c0-7.48,1.72-12.83,5.15-16.03s8.89-4.81,16.38-4.81h43.63c12.9,0,22.83.99,29.78,2.98,6.87,1.91,12.81,5.08,17.81,9.51,5,4.43,8.8,9.85,11.39,16.26,2.59,6.41,3.89,13.63,3.89,21.65,0,17.1-5.27,30.06-15.8,38.88-10.54,8.82-26.23,13.23-47.07,13.23Zm-8.25-76.96h-22.91v51.31h22.91c8.02,0,14.72-.84,20.1-2.52,5.38-1.68,9.49-4.43,12.31-8.25,2.82-3.82,4.24-8.82,4.24-15,0-7.4-2.18-13.44-6.53-18.09-4.89-4.96-14.93-7.44-30.12-7.44Z"/>
      <path class="cls-3" d="m4672.66,1258.15c-7.56,5.88-14.87,10.29-21.93,13.23-7.06,2.94-14.99,4.41-23.76,4.41-8.02,0-15.06-1.59-21.13-4.75-6.07-3.17-10.75-7.46-14.03-12.88-3.28-5.42-4.92-11.3-4.92-17.64,0-8.55,2.71-15.84,8.13-21.87,5.42-6.03,12.86-10.08,22.33-12.14,1.98-.46,6.91-1.49,14.77-3.09,7.86-1.6,14.6-3.07,20.21-4.41,5.61-1.33,11.7-2.96,18.27-4.87-.38-8.25-2.04-14.3-4.98-18.15-2.94-3.85-9.03-5.78-18.27-5.78-7.94,0-13.92,1.11-17.92,3.32-4.01,2.22-7.44,5.54-10.31,9.96-2.86,4.43-4.89,7.35-6.07,8.76-1.18,1.41-3.72,2.12-7.62,2.12-3.51,0-6.55-1.13-9.1-3.38-2.56-2.25-3.84-5.13-3.84-8.65,0-5.5,1.95-10.84,5.84-16.03,3.89-5.19,9.96-9.47,18.21-12.83,8.25-3.36,18.51-5.04,30.81-5.04,13.74,0,24.55,1.62,32.41,4.87,7.86,3.25,13.42,8.38,16.66,15.4,3.24,7.03,4.87,16.34,4.87,27.94,0,7.33-.02,13.55-.06,18.67-.04,5.12-.1,10.8-.17,17.06,0,5.88.97,12.01,2.92,18.38,1.95,6.38,2.92,10.48,2.92,12.31,0,3.21-1.51,6.13-4.52,8.76-3.02,2.63-6.43,3.95-10.25,3.95-3.21,0-6.38-1.51-9.5-4.52-3.13-3.02-6.45-7.39-9.96-13.11Zm-2.06-45.24c-4.58,1.68-11.24,3.46-19.98,5.33-8.74,1.87-14.79,3.25-18.15,4.12-3.36.88-6.57,2.6-9.62,5.15-3.05,2.56-4.58,6.13-4.58,10.71s1.79,8.76,5.38,12.08c3.59,3.32,8.28,4.98,14.09,4.98,6.18,0,11.89-1.35,17.12-4.07,5.23-2.71,9.07-6.2,11.51-10.48,2.82-4.73,4.24-12.52,4.24-23.36v-4.47Z"/>
      <path class="cls-3" d="m4765.23,1230.66v26.11c0,6.34-1.49,11.09-4.47,14.26-2.98,3.17-6.76,4.75-11.34,4.75s-8.21-1.6-11.11-4.81c-2.9-3.21-4.35-7.94-4.35-14.2v-87.04c0-14.05,5.08-21.07,15.23-21.07,5.19,0,8.93,1.64,11.22,4.92,2.29,3.28,3.55,8.13,3.78,14.54,3.74-6.41,7.58-11.26,11.51-14.54,3.93-3.28,9.18-4.92,15.75-4.92s12.94,1.64,19.13,4.92c6.18,3.28,9.28,7.64,9.28,13.06,0,3.82-1.32,6.97-3.95,9.45-2.63,2.48-5.48,3.72-8.53,3.72-1.14,0-3.91-.71-8.3-2.12-4.39-1.41-8.27-2.12-11.62-2.12-4.58,0-8.32,1.2-11.22,3.61-2.9,2.4-5.15,5.97-6.76,10.71-1.6,4.73-2.71,10.36-3.32,16.89-.61,6.53-.92,14.49-.92,23.88Z"/>
      <path class="cls-3" d="m4910.13,1261.47l-27.6-45.35-16.95,16.03v24.85c0,6.03-1.59,10.67-4.75,13.91-3.17,3.24-6.81,4.87-10.94,4.87-4.81,0-8.59-1.6-11.34-4.81-2.75-3.21-4.12-7.94-4.12-14.2v-133.31c0-6.95,1.33-12.23,4.01-15.86,2.67-3.62,6.49-5.44,11.45-5.44s8.63,1.64,11.45,4.92c2.82,3.28,4.24,8.13,4.24,14.54v75.81l35.16-36.88c4.35-4.58,7.67-7.71,9.96-9.39,2.29-1.68,5.08-2.52,8.36-2.52,3.89,0,7.14,1.24,9.73,3.72,2.59,2.48,3.89,5.59,3.89,9.33,0,4.58-4.24,10.69-12.71,18.32l-16.61,15.23,32.07,50.39c2.37,3.74,4.07,6.59,5.1,8.53,1.03,1.95,1.55,3.8,1.55,5.55,0,4.96-1.36,8.88-4.07,11.74-2.71,2.86-6.28,4.29-10.71,4.29-3.82,0-6.76-1.03-8.82-3.09s-4.85-5.8-8.36-11.22Z"/>
      <path class="cls-3" d="m4977.84,1134.12c-4.35,0-8.07-1.33-11.17-4.01-3.09-2.67-4.64-6.45-4.64-11.34,0-4.43,1.58-8.07,4.75-10.94,3.17-2.86,6.85-4.29,11.05-4.29s7.63,1.3,10.76,3.89c3.13,2.6,4.7,6.38,4.7,11.34s-1.53,8.57-4.58,11.28c-3.05,2.71-6.68,4.07-10.88,4.07Zm15.46,32.3v90.36c0,6.26-1.49,10.99-4.47,14.2s-6.76,4.81-11.34,4.81-8.3-1.64-11.17-4.92-4.29-7.98-4.29-14.09v-89.44c0-6.18,1.43-10.84,4.29-13.97,2.86-3.13,6.58-4.7,11.17-4.7s8.36,1.57,11.34,4.7c2.98,3.13,4.47,7.48,4.47,13.06Z"/>
      <path class="cls-3" d="m5055.17,1165.96v3.78c5.5-7.25,11.51-12.58,18.04-15.98,6.53-3.4,14.03-5.1,22.5-5.1s15.61,1.79,22.1,5.38c6.49,3.59,11.34,8.67,14.54,15.23,2.06,3.82,3.4,7.94,4.01,12.37.61,4.43.92,10.08.92,16.95v58.18c0,6.26-1.43,10.99-4.29,14.2s-6.58,4.81-11.17,4.81-8.44-1.64-11.34-4.92c-2.9-3.28-4.35-7.98-4.35-14.09v-52.11c0-10.31-1.43-18.19-4.29-23.65-2.86-5.46-8.57-8.19-17.12-8.19-5.57,0-10.65,1.66-15.23,4.98s-7.94,7.88-10.08,13.69c-1.53,4.66-2.29,13.36-2.29,26.11v39.17c0,6.34-1.47,11.09-4.41,14.26-2.94,3.17-6.74,4.75-11.39,4.75s-8.21-1.64-11.11-4.92c-2.9-3.28-4.35-7.98-4.35-14.09v-90.36c0-5.96,1.3-10.4,3.89-13.34,2.59-2.94,6.15-4.41,10.65-4.41,2.75,0,5.23.65,7.44,1.95,2.21,1.3,3.99,3.25,5.33,5.84,1.33,2.6,2,5.77,2,9.51Z"/>
      <path class="cls-3" d="m5284.59,1171.57v90.82c0,10.38-1.11,19.31-3.32,26.8-2.22,7.48-5.77,13.67-10.65,18.55-4.89,4.89-11.28,8.51-19.18,10.88-7.9,2.37-17.73,3.55-29.49,3.55-10.77,0-20.39-1.51-28.86-4.52-8.47-3.02-15-6.91-19.58-11.68-4.58-4.77-6.87-9.68-6.87-14.72,0-3.82,1.3-6.93,3.89-9.33,2.59-2.41,5.73-3.61,9.39-3.61,4.58,0,8.59,2.02,12.02,6.07,1.68,2.06,3.42,4.14,5.21,6.24,1.79,2.1,3.78,3.89,5.96,5.38,2.18,1.49,4.79,2.59,7.85,3.32,3.05.73,6.57,1.09,10.54,1.09,8.09,0,14.37-1.13,18.84-3.38,4.47-2.25,7.6-5.4,9.39-9.45,1.79-4.05,2.84-8.38,3.15-13,.3-4.62.53-12.04.69-22.27-4.81,6.72-10.36,11.84-16.66,15.35-6.3,3.51-13.8,5.27-22.5,5.27-10.46,0-19.6-2.67-27.43-8.02-7.83-5.34-13.84-12.83-18.04-22.45-4.2-9.62-6.3-20.73-6.3-33.33,0-9.39,1.28-17.87,3.84-25.42,2.56-7.56,6.2-13.93,10.94-19.13,4.73-5.19,10.19-9.1,16.38-11.74,6.18-2.63,12.98-3.95,20.38-3.95,8.86,0,16.53,1.7,23.02,5.1,6.49,3.4,12.52,8.72,18.09,15.98v-4.24c0-5.42,1.33-9.62,4.01-12.6,2.67-2.98,6.11-4.47,10.31-4.47,6.03,0,10.04,1.97,12.02,5.9,1.99,3.93,2.98,9.6,2.98,17.01Zm-90.59,39.63c0,12.67,2.77,22.26,8.3,28.75,5.53,6.49,12.69,9.73,21.47,9.73,5.19,0,10.1-1.39,14.72-4.18,4.62-2.79,8.38-6.99,11.28-12.6,2.9-5.61,4.35-12.43,4.35-20.44,0-12.75-2.81-22.68-8.42-29.78-5.61-7.1-13-10.65-22.16-10.65s-16.09,3.4-21.47,10.19c-5.38,6.8-8.07,16.45-8.07,28.97Z"/>
    </g>
    <g>
      <path class="cls-2" d="m1481.47,869.52c-31.9-56.65-46.75-84.15-59.4-110.55-11.55,26.4-26.4,53.35-58.3,110l-58.85,104.5c-13.2,23.65-33,39.05-62.7,39.05s-53.9-16.5-63.8-50.6l-93.5-323.4h113.85l34.65,128.15c11.55,41.25,19.25,71.5,24.75,101.2,12.1-25.85,26.4-53.9,51.7-101.75l49.5-92.4c19.25-36.3,37.95-41.25,64.9-41.25s46.75,4.95,66,41.25l48.95,92.95c27.5,50.6,40.15,76.45,51.7,101.2,6.05-29.15,14.3-60.5,25.3-101.2l34.65-128.15h111.1l-95.15,323.4c-9.9,34.1-35.2,50.6-63.8,50.6s-48.95-14.85-62.7-39.05l-58.85-103.95Z"/>
      <path class="cls-2" d="m2120.76,1006.47h-82.4v-103.2h-159.2v103.2h-83.2v-267.6h83.2v94.8h159.2v-94.8h82.4v267.6Z"/>
      <path class="cls-2" d="m2284.76,1006.47l50-68.8h67.2c16,0,34.8,0,47.6.8-7.2-9.6-18.4-26-27.2-38.8l-48-70.8-125.6,177.6h-98l171.6-242c11.2-15.6,27.6-30,53.6-30s41.2,13.2,52.8,30l167.2,242h-311.2Z"/>
      <path class="cls-2" d="m2872.36,738.87l-53.6,69.6h-95.6v198h-82.8v-198h-125.6l53.6-69.6h304Z"/>
      <path class="cls-2" d="m3145.56,845.67c65.2,0,100.4,24.4,100.4,73.2,0,54.8-33.2,87.6-114.8,87.6h-249.2l53.2-68.8h202.4c19.6,0,28.4-5.6,28.4-19.6s-8.8-19.2-28.4-19.2h-145.6c-68.8,0-100.4-30.8-100.4-76.8,0-50.4,33.6-83.2,114.8-83.2h232.4l-53.2,69.6h-185.6c-19.2,0-28.4,4.8-28.4,18.4s9.2,18.8,28.4,18.8h145.6Z"/>
      <path class="cls-1" d="m3749.27,638.52l-73.7,95.7h-131.45v272.25h-113.85v-272.25h-172.7l73.7-95.7h418Z"/>
      <path class="cls-1" d="m4154.06,1006.47h-110.8l-59.6-70.8h-127.2v70.8h-82.8v-136.8h232.8c25.6,0,45.6-11.6,45.6-30,0-20.8-17.2-31.2-45.6-31.2h-232.8l54-69.6h172c60.8,0,137.6,19.2,137.6,95.6,0,41.6-26,76-70,84.8,9.2,6.8,19.2,16.4,37.6,35.2l49.2,52Z"/>
      <path class="cls-1" d="m4296.86,1006.47l50-68.8h67.2c16,0,34.8,0,47.6.8-7.2-9.6-18.4-26-27.2-38.8l-48-70.8-125.6,177.6h-98l171.6-242c11.2-15.6,27.6-30,53.6-30s41.2,13.2,52.8,30l167.2,242h-311.2Z"/>
      <path class="cls-1" d="m4936.86,937.67l-53.2,68.8h-134.4c-92.8,0-161.2-58.8-161.2-136.4s68.4-131.2,161.2-131.2h187.6l-53.2,69.6h-134.4c-44.8,0-78.4,26.8-78.4,65.2s33.2,64,78.4,64h187.6Z"/>
      <path class="cls-1" d="m5303.26,1006.47h-125.2l-80.8-70.4c-27.6-24-40.4-35.6-49.6-44.8.4,12.4,1.2,25.6,1.2,38.4v76.8h-83.2v-267.6h83.2v62c0,16.4-.8,32.8-1.6,46.8,10.4-9.6,24.8-23.2,49.2-43.6l77.2-65.2h120l-102.4,76.8c-35.6,26.8-52,38.8-69.2,49.2,15.2,10.4,36,25.2,70.4,53.2l110.8,88.4Z"/>
    </g>
  </g>
</svg>